<?xml version="1.0" standalone="no"?>
<!DOCTYPE svg PUBLIC "-//W3C//DTD SVG 20010904//EN"
 "http://www.w3.org/TR/2001/REC-SVG-20010904/DTD/svg10.dtd">
<svg version="1.0" xmlns="http://www.w3.org/2000/svg"
 width="400.000000pt" height="400.000000pt" viewBox="0 0 400.000000 400.000000"
 preserveAspectRatio="xMidYMid meet">
<metadata>
Created by potrace 1.15, written by Peter Selinger 2001-2017
</metadata>
<g transform="translate(0.000000,400.000000) scale(0.100000,-0.100000)"
fill="#9417e8" stroke="none">
<path d="M122 3652 c17 -44 1875 -3249 1880 -3244 3 4 120 204 258 445 198
342 251 442 244 456 -5 10 -312 543 -683 1185 l-674 1166 -514 0 c-283 0 -513
-4 -511 -8z"/>
<path d="M2282 3638 c8 -13 189 -326 403 -696 213 -370 391 -670 395 -665 4 4
180 307 390 673 211 366 390 675 398 688 l14 22 -807 0 -807 0 14 -22z"/>
</g>
</svg>
